<svg width="16" height="21" viewBox="0 0 16 21" fill="none" xmlns="http://www.w3.org/2000/svg">
<path d="M1 0H15C15.2652 0 15.5196 0.105357 15.7071 0.292893C15.8946 0.48043 16 0.734784 16 1V20.143C16.0001 20.2324 15.9763 20.3202 15.9309 20.3973C15.8855 20.4743 15.8204 20.5378 15.7421 20.5811C15.6639 20.6244 15.5755 20.6459 15.4861 20.6434C15.3968 20.641 15.3097 20.6146 15.234 20.567L8 16.03L0.766 20.566C0.690368 20.6135 0.603387 20.6399 0.514102 20.6424C0.424817 20.6449 0.336486 20.6235 0.258295 20.5803C0.180104 20.5371 0.114907 20.4738 0.0694828 20.3969C0.0240588 20.32 6.64708e-05 20.2323 0 20.143V1C0 0.734784 0.105357 0.48043 0.292893 0.292893C0.48043 0.105357 0.734784 0 1 0ZM14 2H2V17.432L8 13.671L14 17.432V2Z" fill="#BCBCBC"/>
</svg>
