<svg width="22" height="22" viewBox="0 0 22 22" fill="none" xmlns="http://www.w3.org/2000/svg">
<path d="M3.99999 5.414L0.756989 2.172L2.17199 0.757L5.41399 4H20.656C20.8119 3.99999 20.9656 4.03641 21.1049 4.10637C21.2441 4.17632 21.3652 4.27786 21.4582 4.4029C21.5513 4.52793 21.6138 4.67298 21.6409 4.82649C21.6679 4.97999 21.6587 5.13769 21.614 5.287L19.214 13.287C19.1522 13.4931 19.0257 13.6738 18.8531 13.8022C18.6805 13.9307 18.4711 14 18.256 14H5.99999V16H17V18H4.99999C4.73477 18 4.48042 17.8946 4.29288 17.7071C4.10535 17.5196 3.99999 17.2652 3.99999 17V5.414ZM5.99999 6V12H17.512L19.312 6H5.99999ZM5.49999 22C5.10216 22 4.72063 21.842 4.43933 21.5607C4.15802 21.2794 3.99999 20.8978 3.99999 20.5C3.99999 20.1022 4.15802 19.7206 4.43933 19.4393C4.72063 19.158 5.10216 19 5.49999 19C5.89781 19 6.27934 19.158 6.56065 19.4393C6.84195 19.7206 6.99999 20.1022 6.99999 20.5C6.99999 20.8978 6.84195 21.2794 6.56065 21.5607C6.27934 21.842 5.89781 22 5.49999 22ZM17.5 22C17.1022 22 16.7206 21.842 16.4393 21.5607C16.158 21.2794 16 20.8978 16 20.5C16 20.1022 16.158 19.7206 16.4393 19.4393C16.7206 19.158 17.1022 19 17.5 19C17.8978 19 18.2793 19.158 18.5606 19.4393C18.842 19.7206 19 20.1022 19 20.5C19 20.8978 18.842 21.2794 18.5606 21.5607C18.2793 21.842 17.8978 22 17.5 22Z" fill="#BCBCBC"/>
</svg>
