<svg width="20" height="19" viewBox="0 0 20 19" fill="none" xmlns="http://www.w3.org/2000/svg">
<path d="M18.243 1.757C20.505 4.025 20.583 7.637 18.479 9.993L9.999 18.485L1.521 9.993C-0.583002 7.637 -0.504001 4.019 1.757 1.757C4.022 -0.507001 7.645 -0.583001 10.001 1.529C12.35 -0.580001 15.98 -0.510001 18.243 1.757ZM3.172 3.172C1.682 4.662 1.607 7.047 2.98 8.623L10 15.654L17.02 8.624C18.394 7.047 18.319 4.665 16.827 3.17C15.34 1.68 12.946 1.608 11.374 2.984L7.172 7.187L5.757 5.773L8.582 2.946L8.5 2.877C6.925 1.612 4.623 1.72 3.172 3.172Z" fill="#BCBCBC"/>
</svg>
